<mxfile host="app.diagrams.net" modified="2020-11-01T11:44:15.331Z" agent="5.0 (Macintosh; Intel Mac OS X 10_15_6) AppleWebKit/537.36 (KHTML, like Gecko) Chrome/86.0.4240.111 Safari/537.36" etag="wc1nEttZbDaeB27C5dQF" version="13.8.8" type="github">
  <diagram id="C5RBs43oDa-KdzZeNtuy" name="Page-1">
    <mxGraphModel dx="1666" dy="826" grid="1" gridSize="10" guides="1" tooltips="1" connect="1" arrows="1" fold="1" page="1" pageScale="1" pageWidth="827" pageHeight="1169" math="0" shadow="0">
      <root>
        <mxCell id="WIyWlLk6GJQsqaUBKTNV-0" />
        <mxCell id="WIyWlLk6GJQsqaUBKTNV-1" parent="WIyWlLk6GJQsqaUBKTNV-0" />
        <mxCell id="8WkGeIDbDAiY65GCeFQd-5" value="" style="edgeStyle=orthogonalEdgeStyle;rounded=0;orthogonalLoop=1;jettySize=auto;html=1;" edge="1" parent="WIyWlLk6GJQsqaUBKTNV-1" source="8WkGeIDbDAiY65GCeFQd-0" target="8WkGeIDbDAiY65GCeFQd-4">
          <mxGeometry relative="1" as="geometry" />
        </mxCell>
        <mxCell id="8WkGeIDbDAiY65GCeFQd-8" value="" style="edgeStyle=orthogonalEdgeStyle;rounded=0;orthogonalLoop=1;jettySize=auto;html=1;" edge="1" parent="WIyWlLk6GJQsqaUBKTNV-1" source="8WkGeIDbDAiY65GCeFQd-0" target="8WkGeIDbDAiY65GCeFQd-7">
          <mxGeometry relative="1" as="geometry" />
        </mxCell>
        <mxCell id="8WkGeIDbDAiY65GCeFQd-0" value="" style="rhombus;whiteSpace=wrap;html=1;" vertex="1" parent="WIyWlLk6GJQsqaUBKTNV-1">
          <mxGeometry x="10" y="30" width="130" height="90" as="geometry" />
        </mxCell>
        <mxCell id="8WkGeIDbDAiY65GCeFQd-1" value="table是否为空或者长度是否为0" style="text;html=1;strokeColor=none;fillColor=none;align=center;verticalAlign=middle;whiteSpace=wrap;rounded=0;" vertex="1" parent="WIyWlLk6GJQsqaUBKTNV-1">
          <mxGeometry x="42.5" y="65" width="65" height="20" as="geometry" />
        </mxCell>
        <mxCell id="8WkGeIDbDAiY65GCeFQd-4" value="" style="whiteSpace=wrap;html=1;" vertex="1" parent="WIyWlLk6GJQsqaUBKTNV-1">
          <mxGeometry x="225" y="45" width="120" height="60" as="geometry" />
        </mxCell>
        <mxCell id="8WkGeIDbDAiY65GCeFQd-6" value="调用resize()扩容" style="text;html=1;strokeColor=none;fillColor=none;align=center;verticalAlign=middle;whiteSpace=wrap;rounded=0;" vertex="1" parent="WIyWlLk6GJQsqaUBKTNV-1">
          <mxGeometry x="225" y="65" width="125" height="20" as="geometry" />
        </mxCell>
        <mxCell id="8WkGeIDbDAiY65GCeFQd-15" value="" style="edgeStyle=orthogonalEdgeStyle;rounded=0;orthogonalLoop=1;jettySize=auto;html=1;" edge="1" parent="WIyWlLk6GJQsqaUBKTNV-1" source="8WkGeIDbDAiY65GCeFQd-7" target="8WkGeIDbDAiY65GCeFQd-14">
          <mxGeometry relative="1" as="geometry" />
        </mxCell>
        <mxCell id="8WkGeIDbDAiY65GCeFQd-67" value="" style="edgeStyle=orthogonalEdgeStyle;rounded=0;orthogonalLoop=1;jettySize=auto;html=1;" edge="1" parent="WIyWlLk6GJQsqaUBKTNV-1" source="8WkGeIDbDAiY65GCeFQd-7" target="8WkGeIDbDAiY65GCeFQd-66">
          <mxGeometry relative="1" as="geometry" />
        </mxCell>
        <mxCell id="8WkGeIDbDAiY65GCeFQd-7" value="" style="rhombus;whiteSpace=wrap;html=1;" vertex="1" parent="WIyWlLk6GJQsqaUBKTNV-1">
          <mxGeometry x="10" y="200" width="130" height="90" as="geometry" />
        </mxCell>
        <mxCell id="8WkGeIDbDAiY65GCeFQd-9" value="根据hash计算数组下标" style="text;html=1;strokeColor=none;fillColor=none;align=center;verticalAlign=middle;whiteSpace=wrap;rounded=0;" vertex="1" parent="WIyWlLk6GJQsqaUBKTNV-1">
          <mxGeometry x="25" y="235" width="100" height="20" as="geometry" />
        </mxCell>
        <mxCell id="8WkGeIDbDAiY65GCeFQd-13" value="" style="edgeStyle=segmentEdgeStyle;endArrow=classic;html=1;exitX=0.5;exitY=1;exitDx=0;exitDy=0;" edge="1" parent="WIyWlLk6GJQsqaUBKTNV-1" source="8WkGeIDbDAiY65GCeFQd-4">
          <mxGeometry width="50" height="50" relative="1" as="geometry">
            <mxPoint x="280" y="150" as="sourcePoint" />
            <mxPoint x="80" y="160" as="targetPoint" />
            <Array as="points">
              <mxPoint x="285" y="160" />
            </Array>
          </mxGeometry>
        </mxCell>
        <mxCell id="8WkGeIDbDAiY65GCeFQd-18" value="" style="edgeStyle=orthogonalEdgeStyle;rounded=0;orthogonalLoop=1;jettySize=auto;html=1;" edge="1" parent="WIyWlLk6GJQsqaUBKTNV-1" source="8WkGeIDbDAiY65GCeFQd-14" target="8WkGeIDbDAiY65GCeFQd-17">
          <mxGeometry relative="1" as="geometry" />
        </mxCell>
        <mxCell id="8WkGeIDbDAiY65GCeFQd-62" value="" style="edgeStyle=orthogonalEdgeStyle;rounded=0;orthogonalLoop=1;jettySize=auto;html=1;" edge="1" parent="WIyWlLk6GJQsqaUBKTNV-1" source="8WkGeIDbDAiY65GCeFQd-14" target="8WkGeIDbDAiY65GCeFQd-61">
          <mxGeometry relative="1" as="geometry" />
        </mxCell>
        <mxCell id="8WkGeIDbDAiY65GCeFQd-14" value="" style="rhombus;whiteSpace=wrap;html=1;" vertex="1" parent="WIyWlLk6GJQsqaUBKTNV-1">
          <mxGeometry x="220" y="200" width="130" height="90" as="geometry" />
        </mxCell>
        <mxCell id="8WkGeIDbDAiY65GCeFQd-16" value="key存在" style="text;html=1;strokeColor=none;fillColor=none;align=center;verticalAlign=middle;whiteSpace=wrap;rounded=0;" vertex="1" parent="WIyWlLk6GJQsqaUBKTNV-1">
          <mxGeometry x="247.5" y="235" width="75" height="20" as="geometry" />
        </mxCell>
        <mxCell id="8WkGeIDbDAiY65GCeFQd-24" value="" style="edgeStyle=orthogonalEdgeStyle;rounded=0;orthogonalLoop=1;jettySize=auto;html=1;" edge="1" parent="WIyWlLk6GJQsqaUBKTNV-1" source="8WkGeIDbDAiY65GCeFQd-17" target="8WkGeIDbDAiY65GCeFQd-23">
          <mxGeometry relative="1" as="geometry" />
        </mxCell>
        <mxCell id="8WkGeIDbDAiY65GCeFQd-17" value="" style="rhombus;whiteSpace=wrap;html=1;" vertex="1" parent="WIyWlLk6GJQsqaUBKTNV-1">
          <mxGeometry x="430" y="200" width="130" height="90" as="geometry" />
        </mxCell>
        <mxCell id="8WkGeIDbDAiY65GCeFQd-56" style="edgeStyle=orthogonalEdgeStyle;rounded=0;orthogonalLoop=1;jettySize=auto;html=1;entryX=1;entryY=0.5;entryDx=0;entryDy=0;" edge="1" parent="WIyWlLk6GJQsqaUBKTNV-1" target="8WkGeIDbDAiY65GCeFQd-54">
          <mxGeometry relative="1" as="geometry">
            <mxPoint x="560" y="245" as="sourcePoint" />
          </mxGeometry>
        </mxCell>
        <mxCell id="8WkGeIDbDAiY65GCeFQd-19" value="tab[i]是否为树节点" style="text;html=1;strokeColor=none;fillColor=none;align=center;verticalAlign=middle;whiteSpace=wrap;rounded=0;" vertex="1" parent="WIyWlLk6GJQsqaUBKTNV-1">
          <mxGeometry x="450" y="235" width="80" height="20" as="geometry" />
        </mxCell>
        <mxCell id="8WkGeIDbDAiY65GCeFQd-31" value="" style="edgeStyle=orthogonalEdgeStyle;rounded=0;orthogonalLoop=1;jettySize=auto;html=1;" edge="1" parent="WIyWlLk6GJQsqaUBKTNV-1" source="8WkGeIDbDAiY65GCeFQd-23" target="8WkGeIDbDAiY65GCeFQd-30">
          <mxGeometry relative="1" as="geometry" />
        </mxCell>
        <mxCell id="8WkGeIDbDAiY65GCeFQd-23" value="" style="whiteSpace=wrap;html=1;" vertex="1" parent="WIyWlLk6GJQsqaUBKTNV-1">
          <mxGeometry x="435" y="385" width="120" height="60" as="geometry" />
        </mxCell>
        <mxCell id="8WkGeIDbDAiY65GCeFQd-25" value="否" style="text;html=1;strokeColor=none;fillColor=none;align=center;verticalAlign=middle;whiteSpace=wrap;rounded=0;" vertex="1" parent="WIyWlLk6GJQsqaUBKTNV-1">
          <mxGeometry x="480" y="320" width="40" height="20" as="geometry" />
        </mxCell>
        <mxCell id="8WkGeIDbDAiY65GCeFQd-26" value="遍历插入" style="text;html=1;strokeColor=none;fillColor=none;align=center;verticalAlign=middle;whiteSpace=wrap;rounded=0;" vertex="1" parent="WIyWlLk6GJQsqaUBKTNV-1">
          <mxGeometry x="430" y="405" width="120" height="20" as="geometry" />
        </mxCell>
        <mxCell id="8WkGeIDbDAiY65GCeFQd-43" value="" style="edgeStyle=orthogonalEdgeStyle;rounded=0;orthogonalLoop=1;jettySize=auto;html=1;" edge="1" parent="WIyWlLk6GJQsqaUBKTNV-1" source="8WkGeIDbDAiY65GCeFQd-30" target="8WkGeIDbDAiY65GCeFQd-42">
          <mxGeometry relative="1" as="geometry" />
        </mxCell>
        <mxCell id="8WkGeIDbDAiY65GCeFQd-80" style="edgeStyle=orthogonalEdgeStyle;rounded=0;orthogonalLoop=1;jettySize=auto;html=1;exitX=0.5;exitY=1;exitDx=0;exitDy=0;" edge="1" parent="WIyWlLk6GJQsqaUBKTNV-1" source="8WkGeIDbDAiY65GCeFQd-30">
          <mxGeometry relative="1" as="geometry">
            <mxPoint x="495.3333333333335" y="660" as="targetPoint" />
          </mxGeometry>
        </mxCell>
        <mxCell id="8WkGeIDbDAiY65GCeFQd-30" value="" style="rhombus;whiteSpace=wrap;html=1;" vertex="1" parent="WIyWlLk6GJQsqaUBKTNV-1">
          <mxGeometry x="436.25" y="500" width="117.5" height="80" as="geometry" />
        </mxCell>
        <mxCell id="8WkGeIDbDAiY65GCeFQd-32" value="是" style="text;html=1;strokeColor=none;fillColor=none;align=center;verticalAlign=middle;whiteSpace=wrap;rounded=0;" vertex="1" parent="WIyWlLk6GJQsqaUBKTNV-1">
          <mxGeometry x="555" y="520" width="40" height="20" as="geometry" />
        </mxCell>
        <mxCell id="8WkGeIDbDAiY65GCeFQd-33" value="长度大于8" style="text;html=1;strokeColor=none;fillColor=none;align=center;verticalAlign=middle;whiteSpace=wrap;rounded=0;" vertex="1" parent="WIyWlLk6GJQsqaUBKTNV-1">
          <mxGeometry x="460" y="530" width="70" height="20" as="geometry" />
        </mxCell>
        <mxCell id="8WkGeIDbDAiY65GCeFQd-55" value="" style="edgeStyle=orthogonalEdgeStyle;rounded=0;orthogonalLoop=1;jettySize=auto;html=1;" edge="1" parent="WIyWlLk6GJQsqaUBKTNV-1" source="8WkGeIDbDAiY65GCeFQd-42" target="8WkGeIDbDAiY65GCeFQd-54">
          <mxGeometry relative="1" as="geometry" />
        </mxCell>
        <mxCell id="8WkGeIDbDAiY65GCeFQd-42" value="转为红黑树" style="whiteSpace=wrap;html=1;" vertex="1" parent="WIyWlLk6GJQsqaUBKTNV-1">
          <mxGeometry x="610" y="520" width="97.5" height="40" as="geometry" />
        </mxCell>
        <mxCell id="8WkGeIDbDAiY65GCeFQd-78" style="edgeStyle=orthogonalEdgeStyle;rounded=0;orthogonalLoop=1;jettySize=auto;html=1;" edge="1" parent="WIyWlLk6GJQsqaUBKTNV-1" source="8WkGeIDbDAiY65GCeFQd-54">
          <mxGeometry relative="1" as="geometry">
            <mxPoint x="80" y="640" as="targetPoint" />
          </mxGeometry>
        </mxCell>
        <mxCell id="8WkGeIDbDAiY65GCeFQd-54" value="红黑树插入" style="whiteSpace=wrap;html=1;" vertex="1" parent="WIyWlLk6GJQsqaUBKTNV-1">
          <mxGeometry x="610" y="640" width="97.5" height="40" as="geometry" />
        </mxCell>
        <mxCell id="8WkGeIDbDAiY65GCeFQd-65" value="" style="edgeStyle=orthogonalEdgeStyle;rounded=0;orthogonalLoop=1;jettySize=auto;html=1;" edge="1" parent="WIyWlLk6GJQsqaUBKTNV-1" source="8WkGeIDbDAiY65GCeFQd-61" target="8WkGeIDbDAiY65GCeFQd-64">
          <mxGeometry relative="1" as="geometry" />
        </mxCell>
        <mxCell id="8WkGeIDbDAiY65GCeFQd-61" value="直接覆盖" style="whiteSpace=wrap;html=1;" vertex="1" parent="WIyWlLk6GJQsqaUBKTNV-1">
          <mxGeometry x="236.25" y="380" width="97.5" height="40" as="geometry" />
        </mxCell>
        <mxCell id="8WkGeIDbDAiY65GCeFQd-63" value="是" style="text;html=1;strokeColor=none;fillColor=none;align=center;verticalAlign=middle;whiteSpace=wrap;rounded=0;" vertex="1" parent="WIyWlLk6GJQsqaUBKTNV-1">
          <mxGeometry x="280" y="310" width="40" height="20" as="geometry" />
        </mxCell>
        <mxCell id="8WkGeIDbDAiY65GCeFQd-64" value="返回oldValue" style="whiteSpace=wrap;html=1;" vertex="1" parent="WIyWlLk6GJQsqaUBKTNV-1">
          <mxGeometry x="236.25" y="500" width="97.5" height="40" as="geometry" />
        </mxCell>
        <mxCell id="8WkGeIDbDAiY65GCeFQd-69" value="" style="edgeStyle=orthogonalEdgeStyle;rounded=0;orthogonalLoop=1;jettySize=auto;html=1;" edge="1" parent="WIyWlLk6GJQsqaUBKTNV-1" source="8WkGeIDbDAiY65GCeFQd-66" target="8WkGeIDbDAiY65GCeFQd-68">
          <mxGeometry relative="1" as="geometry" />
        </mxCell>
        <mxCell id="8WkGeIDbDAiY65GCeFQd-66" value="直接插入" style="whiteSpace=wrap;html=1;" vertex="1" parent="WIyWlLk6GJQsqaUBKTNV-1">
          <mxGeometry x="26.25" y="365" width="97.5" height="40" as="geometry" />
        </mxCell>
        <mxCell id="8WkGeIDbDAiY65GCeFQd-73" value="" style="edgeStyle=orthogonalEdgeStyle;rounded=0;orthogonalLoop=1;jettySize=auto;html=1;" edge="1" parent="WIyWlLk6GJQsqaUBKTNV-1" source="8WkGeIDbDAiY65GCeFQd-68" target="8WkGeIDbDAiY65GCeFQd-72">
          <mxGeometry relative="1" as="geometry" />
        </mxCell>
        <mxCell id="8WkGeIDbDAiY65GCeFQd-68" value="" style="rhombus;whiteSpace=wrap;html=1;" vertex="1" parent="WIyWlLk6GJQsqaUBKTNV-1">
          <mxGeometry x="12.5" y="650" width="125" height="80" as="geometry" />
        </mxCell>
        <mxCell id="8WkGeIDbDAiY65GCeFQd-70" value="++size&amp;gt;threshold" style="text;html=1;strokeColor=none;fillColor=none;align=center;verticalAlign=middle;whiteSpace=wrap;rounded=0;" vertex="1" parent="WIyWlLk6GJQsqaUBKTNV-1">
          <mxGeometry x="25" y="680" width="95" height="20" as="geometry" />
        </mxCell>
        <mxCell id="8WkGeIDbDAiY65GCeFQd-72" value="扩容" style="whiteSpace=wrap;html=1;" vertex="1" parent="WIyWlLk6GJQsqaUBKTNV-1">
          <mxGeometry x="247.5" y="670" width="97.5" height="40" as="geometry" />
        </mxCell>
        <mxCell id="8WkGeIDbDAiY65GCeFQd-81" value="否" style="text;html=1;strokeColor=none;fillColor=none;align=center;verticalAlign=middle;whiteSpace=wrap;rounded=0;" vertex="1" parent="WIyWlLk6GJQsqaUBKTNV-1">
          <mxGeometry x="490" y="610" width="40" height="20" as="geometry" />
        </mxCell>
        <mxCell id="8WkGeIDbDAiY65GCeFQd-82" value="否" style="text;html=1;strokeColor=none;fillColor=none;align=center;verticalAlign=middle;whiteSpace=wrap;rounded=0;" vertex="1" parent="WIyWlLk6GJQsqaUBKTNV-1">
          <mxGeometry x="360" y="220" width="40" height="20" as="geometry" />
        </mxCell>
        <mxCell id="8WkGeIDbDAiY65GCeFQd-83" value="对应位置为null" style="text;html=1;strokeColor=none;fillColor=none;align=center;verticalAlign=middle;whiteSpace=wrap;rounded=0;" vertex="1" parent="WIyWlLk6GJQsqaUBKTNV-1">
          <mxGeometry x="67.5" y="310" width="82.5" height="20" as="geometry" />
        </mxCell>
        <mxCell id="8WkGeIDbDAiY65GCeFQd-84" value="对应位置有值" style="text;html=1;strokeColor=none;fillColor=none;align=center;verticalAlign=middle;whiteSpace=wrap;rounded=0;" vertex="1" parent="WIyWlLk6GJQsqaUBKTNV-1">
          <mxGeometry x="150" y="220" width="40" height="20" as="geometry" />
        </mxCell>
      </root>
    </mxGraphModel>
  </diagram>
</mxfile>
